<?xml version="1.0" standalone="no"?>
<!DOCTYPE svg PUBLIC "-//W3C//DTD SVG 20010904//EN"
 "http://www.w3.org/TR/2001/REC-SVG-20010904/DTD/svg10.dtd">
<svg version="1.0" xmlns="http://www.w3.org/2000/svg"
 width="300.000000pt" height="300.000000pt" viewBox="0 0 300.000000 300.000000"
 preserveAspectRatio="xMidYMid meet">
<metadata>
Created by potrace 1.10, written by Peter Selinger 2001-2011
</metadata>
<g transform="translate(0.000000,300.000000) scale(0.100000,-0.100000)"
fill="#ffffff" stroke="none">
<path d="M1325 2984 c-38 -8 -113 -36 -165 -61 -81 -39 -108 -59 -185 -137
-155 -155 -215 -300 -215 -515 1 -279 149 -514 408 -645 175 -89 447 -89 624
-1 122 62 251 184 321 305 14 25 38 81 53 125 25 73 28 93 28 220 0 123 -4
149 -26 217 -40 121 -92 204 -182 293 -144 142 -285 203 -481 211 -76 2 -132
-1 -180 -12z"/>
<path d="M773 1535 c-233 -51 -396 -242 -473 -550 -45 -187 -64 -467 -40 -596
17 -87 63 -174 128 -238 68 -68 134 -105 240 -132 71 -18 117 -19 866 -19 647
0 803 3 858 15 208 44 354 196 388 405 20 118 1 368 -41 548 -60 259 -182 440
-354 522 -86 42 -208 67 -271 57 -20 -3 -87 -38 -150 -78 -258 -162 -443 -187
-680 -93 -38 15 -106 51 -152 80 -156 101 -184 108 -319 79z"/>
</g>
</svg>
